<svg id="visual" viewBox="0 0 900 600" width="900" height="600" xmlns="http://www.w3.org/2000/svg" xmlns:xlink="http://www.w3.org/1999/xlink" version="1.1"><rect x="0" y="0" width="900" height="600" fill="#0a131c"></rect><path d="M0 262L300 394L600 446L900 333L900 601L600 601L300 601L0 601Z" fill="#00b606"></path><path d="M0 366L300 521L600 452L900 515L900 601L600 601L300 601L0 601Z" fill="#0d8e25"></path><path d="M0 452L300 458L600 501L900 397L900 601L600 601L300 601L0 601Z" fill="#1b682b"></path><path d="M0 518L300 559L600 451L900 534L900 601L600 601L300 601L0 601Z" fill="#214328"></path></svg>