<svg id="visual" viewBox="0 0 900 600" width="900" height="600" xmlns="http://www.w3.org/2000/svg" xmlns:xlink="http://www.w3.org/1999/xlink" version="1.1"><rect x="0" y="0" width="900" height="600" fill="#0a131c"></rect><path d="M0 291L300 497L600 437L900 486L900 601L600 601L300 601L0 601Z" fill="#16ca21"></path><path d="M0 522L300 358L600 524L900 481L900 601L600 601L300 601L0 601Z" fill="#078708"></path><path d="M0 448L300 436L600 497L900 408L900 601L600 601L300 601L0 601Z" fill="#004900"></path><path d="M0 563L300 545L600 512L900 470L900 601L600 601L300 601L0 601Z" fill="#000000"></path></svg>