<svg id="visual" viewBox="0 0 900 600" width="900" height="600" xmlns="http://www.w3.org/2000/svg" xmlns:xlink="http://www.w3.org/1999/xlink" version="1.1"><rect x="0" y="0" width="900" height="600" fill="#0a131c"></rect><path d="M0 405L450 554L900 382L900 601L450 601L0 601Z" fill="#16ca21"></path><path d="M0 434L450 539L900 476L900 601L450 601L0 601Z" fill="#0da112"></path><path d="M0 541L450 556L900 532L900 601L450 601L0 601Z" fill="#047b04"></path><path d="M0 481L450 553L900 471L900 601L450 601L0 601Z" fill="#005500"></path><path d="M0 578L450 535L900 493L900 601L450 601L0 601Z" fill="#003100"></path><path d="M0 560L450 567L900 530L900 601L450 601L0 601Z" fill="#000000"></path></svg>