<svg id="visual" viewBox="0 0 900 600" width="900" height="600" xmlns="http://www.w3.org/2000/svg" xmlns:xlink="http://www.w3.org/1999/xlink" version="1.1"><g stroke-width="1" stroke-linejoin="bevel"><path d="M533 283L716 138L523 143Z" fill="#035006" stroke="#0b0707"></path><path d="M533 283L708 316L716 138Z" fill="#002a00" stroke="#0b0707"></path><path d="M716 138L550 0L523 143Z" fill="#000000" stroke="#0b0707"></path><path d="M716 138L709 0L550 0Z" fill="#000000" stroke="#0b0707"></path><path d="M533 454L716 432L708 316Z" fill="#002200" stroke="#0b0707"></path><path d="M900 295L900 134L716 138Z" fill="#001b00" stroke="#0b0707"></path><path d="M533 283L533 454L708 316Z" fill="#003d00" stroke="#0b0707"></path><path d="M346 307L533 454L533 283Z" fill="#001b00" stroke="#0b0707"></path><path d="M341 0L340 145L523 143Z" fill="#003300" stroke="#0b0707"></path><path d="M523 143L340 145L533 283Z" fill="#035006" stroke="#0b0707"></path><path d="M900 295L716 138L708 316Z" fill="#002200" stroke="#0b0707"></path><path d="M716 138L900 0L709 0Z" fill="#0e6f11" stroke="#0b0707"></path><path d="M716 432L900 295L708 316Z" fill="#065a09" stroke="#0b0707"></path><path d="M340 145L346 307L533 283Z" fill="#003d00" stroke="#0b0707"></path><path d="M900 134L900 0L716 138Z" fill="#003300" stroke="#0b0707"></path><path d="M550 0L341 0L523 143Z" fill="#002a00" stroke="#0b0707"></path><path d="M346 307L375 468L533 454Z" fill="#0e6f11" stroke="#0b0707"></path><path d="M716 432L900 449L900 295Z" fill="#003300" stroke="#0b0707"></path><path d="M724 600L900 449L716 432Z" fill="#003d00" stroke="#0b0707"></path><path d="M724 600L716 432L533 454Z" fill="#000000" stroke="#0b0707"></path><path d="M375 468L536 600L533 454Z" fill="#0a650d" stroke="#0b0707"></path><path d="M536 600L724 600L533 454Z" fill="#0e6f11" stroke="#0b0707"></path><path d="M181 0L172 145L340 145Z" fill="#003300" stroke="#0b0707"></path><path d="M340 145L173 282L346 307Z" fill="#014704" stroke="#0b0707"></path><path d="M346 307L183 435L375 468Z" fill="#000000" stroke="#0b0707"></path><path d="M172 145L173 282L340 145Z" fill="#002a00" stroke="#0b0707"></path><path d="M183 435L356 600L375 468Z" fill="#002a00" stroke="#0b0707"></path><path d="M375 468L356 600L536 600Z" fill="#003300" stroke="#0b0707"></path><path d="M724 600L900 600L900 449Z" fill="#002a00" stroke="#0b0707"></path><path d="M341 0L181 0L340 145Z" fill="#014704" stroke="#0b0707"></path><path d="M173 282L183 435L346 307Z" fill="#002200" stroke="#0b0707"></path><path d="M0 315L183 435L173 282Z" fill="#014704" stroke="#0b0707"></path><path d="M0 466L174 600L183 435Z" fill="#003d00" stroke="#0b0707"></path><path d="M183 435L174 600L356 600Z" fill="#0e6f11" stroke="#0b0707"></path><path d="M181 0L0 134L172 145Z" fill="#014704" stroke="#0b0707"></path><path d="M172 145L0 134L173 282Z" fill="#000000" stroke="#0b0707"></path><path d="M0 134L0 315L173 282Z" fill="#003d00" stroke="#0b0707"></path><path d="M181 0L0 0L0 134Z" fill="#003300" stroke="#0b0707"></path><path d="M0 315L0 466L183 435Z" fill="#002200" stroke="#0b0707"></path><path d="M0 466L0 600L174 600Z" fill="#002200" stroke="#0b0707"></path></g></svg>