<svg id="visual" viewBox="0 0 900 600" width="900" height="600" xmlns="http://www.w3.org/2000/svg" xmlns:xlink="http://www.w3.org/1999/xlink" version="1.1"><rect x="0" y="0" width="900" height="600" fill="#0a131c"></rect><path d="M0 539L180 523L360 519L540 492L720 492L900 368L900 601L720 601L540 601L360 601L180 601L0 601Z" fill="#16ca21"></path><path d="M0 390L180 428L360 462L540 378L720 514L900 518L900 601L720 601L540 601L360 601L180 601L0 601Z" fill="#0da112"></path><path d="M0 560L180 452L360 447L540 529L720 427L900 568L900 601L720 601L540 601L360 601L180 601L0 601Z" fill="#047b04"></path><path d="M0 457L180 557L360 528L540 556L720 463L900 466L900 601L720 601L540 601L360 601L180 601L0 601Z" fill="#005500"></path><path d="M0 542L180 533L360 583L540 567L720 529L900 499L900 601L720 601L540 601L360 601L180 601L0 601Z" fill="#003100"></path><path d="M0 576L180 550L360 574L540 566L720 578L900 555L900 601L720 601L540 601L360 601L180 601L0 601Z" fill="#000000"></path></svg>