<svg id="visual" viewBox="0 0 900 600" width="900" height="600" xmlns="http://www.w3.org/2000/svg" xmlns:xlink="http://www.w3.org/1999/xlink" version="1.1"><rect x="0" y="0" width="900" height="600" fill="#0a131c"></rect><path d="M0 343L90 370L180 313L270 325L360 354L450 341L540 368L630 351L720 372L810 330L900 332L900 601L810 601L720 601L630 601L540 601L450 601L360 601L270 601L180 601L90 601L0 601Z" fill="#11a21b"></path><path d="M0 411L90 399L180 361L270 394L360 392L450 410L540 404L630 381L720 372L810 363L900 389L900 601L810 601L720 601L630 601L540 601L450 601L360 601L270 601L180 601L90 601L0 601Z" fill="#0a820e"></path><path d="M0 456L90 446L180 413L270 451L360 438L450 400L540 418L630 452L720 394L810 437L900 448L900 601L810 601L720 601L630 601L540 601L450 601L360 601L270 601L180 601L90 601L0 601Z" fill="#036403"></path><path d="M0 437L90 494L180 495L270 509L360 441L450 499L540 498L630 492L720 463L810 495L900 499L900 601L810 601L720 601L630 601L540 601L450 601L360 601L270 601L180 601L90 601L0 601Z" fill="#004600"></path><path d="M0 484L90 524L180 500L270 478L360 521L450 511L540 490L630 490L720 494L810 519L900 505L900 601L810 601L720 601L630 601L540 601L450 601L360 601L270 601L180 601L90 601L0 601Z" fill="#002a00"></path><path d="M0 521L90 550L180 518L270 561L360 550L450 558L540 548L630 524L720 557L810 592L900 561L900 601L810 601L720 601L630 601L540 601L450 601L360 601L270 601L180 601L90 601L0 601Z" fill="#000000"></path></svg>