<svg id="visual" viewBox="0 0 900 600" width="900" height="600" xmlns="http://www.w3.org/2000/svg" xmlns:xlink="http://www.w3.org/1999/xlink" version="1.1"><rect x="0" y="0" width="900" height="600" fill="#0a131c"></rect><path d="M0 389L300 375L600 455L900 471L900 601L600 601L300 601L0 601Z" fill="#16ca21"></path><path d="M0 475L300 486L600 422L900 407L900 601L600 601L300 601L0 601Z" fill="#078708"></path><path d="M0 467L300 442L600 572L900 525L900 601L600 601L300 601L0 601Z" fill="#004900"></path><path d="M0 529L300 564L600 571L900 582L900 601L600 601L300 601L0 601Z" fill="#000000"></path></svg>