<svg id="visual" viewBox="0 0 900 600" width="900" height="600" xmlns="http://www.w3.org/2000/svg" xmlns:xlink="http://www.w3.org/1999/xlink" version="1.1"><rect x="0" y="0" width="900" height="600" fill="#0a131c"></rect><path d="M0 330L82 318L164 348L245 323L327 319L409 352L491 346L573 362L655 314L736 345L818 311L900 331L900 601L818 601L736 601L655 601L573 601L491 601L409 601L327 601L245 601L164 601L82 601L0 601Z" fill="#16ca21"></path><path d="M0 395L82 392L164 398L245 393L327 370L409 352L491 408L573 379L655 398L736 393L818 375L900 408L900 601L818 601L736 601L655 601L573 601L491 601L409 601L327 601L245 601L164 601L82 601L0 601Z" fill="#0da112"></path><path d="M0 450L82 456L164 425L245 396L327 425L409 417L491 426L573 402L655 462L736 450L818 395L900 403L900 601L818 601L736 601L655 601L573 601L491 601L409 601L327 601L245 601L164 601L82 601L0 601Z" fill="#047b04"></path><path d="M0 499L82 452L164 498L245 449L327 489L409 479L491 455L573 500L655 490L736 473L818 475L900 473L900 601L818 601L736 601L655 601L573 601L491 601L409 601L327 601L245 601L164 601L82 601L0 601Z" fill="#005500"></path><path d="M0 537L82 506L164 523L245 531L327 488L409 532L491 543L573 536L655 518L736 519L818 503L900 547L900 601L818 601L736 601L655 601L573 601L491 601L409 601L327 601L245 601L164 601L82 601L0 601Z" fill="#003100"></path><path d="M0 589L82 543L164 536L245 556L327 530L409 566L491 542L573 551L655 570L736 573L818 557L900 575L900 601L818 601L736 601L655 601L573 601L491 601L409 601L327 601L245 601L164 601L82 601L0 601Z" fill="#000000"></path></svg>