<svg id="visual" viewBox="0 0 900 600" width="900" height="600" xmlns="http://www.w3.org/2000/svg" xmlns:xlink="http://www.w3.org/1999/xlink" version="1.1"><rect x="0" y="0" width="900" height="600" fill="#0a131c"></rect><path d="M0 490L180 335L360 444L540 464L720 419L900 442L900 601L720 601L540 601L360 601L180 601L0 601Z" fill="#16ca21"></path><path d="M0 390L180 489L360 393L540 507L720 395L900 509L900 601L720 601L540 601L360 601L180 601L0 601Z" fill="#0da112"></path><path d="M0 489L180 487L360 466L540 561L720 441L900 436L900 601L720 601L540 601L360 601L180 601L0 601Z" fill="#047b04"></path><path d="M0 541L180 554L360 457L540 515L720 521L900 496L900 601L720 601L540 601L360 601L180 601L0 601Z" fill="#005500"></path><path d="M0 579L180 494L360 517L540 505L720 567L900 561L900 601L720 601L540 601L360 601L180 601L0 601Z" fill="#003100"></path><path d="M0 562L180 561L360 547L540 533L720 530L900 524L900 601L720 601L540 601L360 601L180 601L0 601Z" fill="#000000"></path></svg>