<svg id="visual" viewBox="0 0 900 600" width="900" height="600" xmlns="http://www.w3.org/2000/svg" xmlns:xlink="http://www.w3.org/1999/xlink" version="1.1"><rect x="0" y="0" width="900" height="600" fill="#0a131c"></rect><path d="M0 361L90 337L180 324L270 370L360 361L450 362L540 365L630 342L720 384L810 377L900 323L900 601L810 601L720 601L630 601L540 601L450 601L360 601L270 601L180 601L90 601L0 601Z" fill="#0cd018"></path><path d="M0 359L90 350L180 420L270 350L360 394L450 357L540 372L630 350L720 426L810 397L900 411L900 601L810 601L720 601L630 601L540 601L450 601L360 601L270 601L180 601L90 601L0 601Z" fill="#07a60c"></path><path d="M0 423L90 453L180 413L270 401L360 398L450 420L540 403L630 469L720 406L810 393L900 440L900 601L810 601L720 601L630 601L540 601L450 601L360 601L270 601L180 601L90 601L0 601Z" fill="#027e03"></path><path d="M0 502L90 484L180 431L270 456L360 504L450 435L540 437L630 472L720 489L810 467L900 452L900 601L810 601L720 601L630 601L540 601L450 601L360 601L270 601L180 601L90 601L0 601Z" fill="#005800"></path><path d="M0 482L90 515L180 530L270 482L360 478L450 505L540 496L630 506L720 538L810 497L900 532L900 601L810 601L720 601L630 601L540 601L450 601L360 601L270 601L180 601L90 601L0 601Z" fill="#003200"></path><path d="M0 540L90 571L180 552L270 531L360 587L450 554L540 563L630 588L720 531L810 523L900 537L900 601L810 601L720 601L630 601L540 601L450 601L360 601L270 601L180 601L90 601L0 601Z" fill="#000000"></path></svg>