<svg id="visual" viewBox="0 0 540 960" width="540" height="960" xmlns="http://www.w3.org/2000/svg" xmlns:xlink="http://www.w3.org/1999/xlink" version="1.1"><g stroke-width="1" stroke-linejoin="bevel"><path d="M289 489.6L350 473.4L286 457.4Z" fill="#000000" stroke="#254835"></path><path d="M289 489.6L357 541.6L350 473.4Z" fill="#000000" stroke="#254835"></path><path d="M375 369.1L278 368.1L286 457.4Z" fill="#000000" stroke="#254835"></path><path d="M428 430.4L375 369.1L350 473.4Z" fill="#000000" stroke="#254835"></path><path d="M350 473.4L375 369.1L286 457.4Z" fill="#000000" stroke="#254835"></path><path d="M454 489.6L428 430.4L350 473.4Z" fill="#000000" stroke="#254835"></path><path d="M193 515.6L252 579.9L289 489.6Z" fill="#000000" stroke="#254835"></path><path d="M289 489.6L252 579.9L357 541.6Z" fill="#000000" stroke="#254835"></path><path d="M193 515.6L289 489.6L286 457.4Z" fill="#000000" stroke="#254835"></path><path d="M278 368.1L191 439.4L286 457.4Z" fill="#000000" stroke="#254835"></path><path d="M191 439.4L193 515.6L286 457.4Z" fill="#000000" stroke="#254835"></path><path d="M357 541.6L454 489.6L350 473.4Z" fill="#000000" stroke="#254835"></path><path d="M193 515.6L195 568.9L252 579.9Z" fill="#000000" stroke="#254835"></path><path d="M252 579.9L370 637.9L357 541.6Z" fill="#000000" stroke="#254835"></path><path d="M357 541.6L435 629.9L454 489.6Z" fill="#000000" stroke="#254835"></path><path d="M336 677.2L370 637.9L252 579.9Z" fill="#000000" stroke="#254835"></path><path d="M428 430.4L431 325.1L375 369.1Z" fill="#000000" stroke="#254835"></path><path d="M375 369.1L328 249.8L278 368.1Z" fill="#000000" stroke="#254835"></path><path d="M483 290.8L431 325.1L540 326.1Z" fill="#000000" stroke="#254835"></path><path d="M370 637.9L435 629.9L357 541.6Z" fill="#000000" stroke="#254835"></path><path d="M106 377.1L121 433.4L191 439.4Z" fill="#000000" stroke="#254835"></path><path d="M191 439.4L121 433.4L193 515.6Z" fill="#000000" stroke="#254835"></path><path d="M193 515.6L54 488.6L195 568.9Z" fill="#000000" stroke="#254835"></path><path d="M228 664.2L336 677.2L252 579.9Z" fill="#000000" stroke="#254835"></path><path d="M370 637.9L478 709.2L435 629.9Z" fill="#000000" stroke="#254835"></path><path d="M244 239.8L184 306.1L278 368.1Z" fill="#000000" stroke="#254835"></path><path d="M278 368.1L184 306.1L191 439.4Z" fill="#000000" stroke="#254835"></path><path d="M79 643.9L228 664.2L195 568.9Z" fill="#000000" stroke="#254835"></path><path d="M195 568.9L228 664.2L252 579.9Z" fill="#000000" stroke="#254835"></path><path d="M431 325.1L328 249.8L375 369.1Z" fill="#000000" stroke="#254835"></path><path d="M540 533.6L540 464.4L454 489.6Z" fill="#000000" stroke="#254835"></path><path d="M454 489.6L540 464.4L428 430.4Z" fill="#000000" stroke="#254835"></path><path d="M184 306.1L106 377.1L191 439.4Z" fill="#000000" stroke="#254835"></path><path d="M435 629.9L540 533.6L454 489.6Z" fill="#000000" stroke="#254835"></path><path d="M328 249.8L244 239.8L278 368.1Z" fill="#000000" stroke="#254835"></path><path d="M184 306.1L137 277.8L106 377.1Z" fill="#000000" stroke="#254835"></path><path d="M540 326.1L431 325.1L428 430.4Z" fill="#000000" stroke="#254835"></path><path d="M431 325.1L483 290.8L328 249.8Z" fill="#000000" stroke="#254835"></path><path d="M429 146.5L323 213.5L328 249.8Z" fill="#000000" stroke="#254835"></path><path d="M328 249.8L323 213.5L244 239.8Z" fill="#000000" stroke="#254835"></path><path d="M0 449.4L54 488.6L121 433.4Z" fill="#000000" stroke="#254835"></path><path d="M121 433.4L54 488.6L193 515.6Z" fill="#000000" stroke="#254835"></path><path d="M244 239.8L137 277.8L184 306.1Z" fill="#000000" stroke="#254835"></path><path d="M106 377.1L0 449.4L121 433.4Z" fill="#000000" stroke="#254835"></path><path d="M540 464.4L540 326.1L428 430.4Z" fill="#000000" stroke="#254835"></path><path d="M478 709.2L540 628.9L435 629.9Z" fill="#000000" stroke="#254835"></path><path d="M435 629.9L540 628.9L540 533.6Z" fill="#000000" stroke="#254835"></path><path d="M540 326.1L540 295.8L483 290.8Z" fill="#000000" stroke="#254835"></path><path d="M483 290.8L429 146.5L328 249.8Z" fill="#000000" stroke="#254835"></path><path d="M336 677.2L478 709.2L370 637.9Z" fill="#000000" stroke="#254835"></path><path d="M432 788.5L478 709.2L336 677.2Z" fill="#000000" stroke="#254835"></path><path d="M54 488.6L79 643.9L195 568.9Z" fill="#000000" stroke="#254835"></path><path d="M258 809.5L329 792.5L336 677.2Z" fill="#000000" stroke="#254835"></path><path d="M79 643.9L173 735.2L228 664.2Z" fill="#000000" stroke="#254835"></path><path d="M167 146.5L114 239.8L244 239.8Z" fill="#000000" stroke="#254835"></path><path d="M244 239.8L114 239.8L137 277.8Z" fill="#000000" stroke="#254835"></path><path d="M137 277.8L0 320.1L106 377.1Z" fill="#000000" stroke="#254835"></path><path d="M0 320.1L0 449.4L106 377.1Z" fill="#000000" stroke="#254835"></path><path d="M54 488.6L0 540.6L79 643.9Z" fill="#000000" stroke="#254835"></path><path d="M258 809.5L336 677.2L228 664.2Z" fill="#000000" stroke="#254835"></path><path d="M540 769.5L540 703.2L478 709.2Z" fill="#000000" stroke="#254835"></path><path d="M478 709.2L540 703.2L540 628.9Z" fill="#000000" stroke="#254835"></path><path d="M332 96.3L256 152.5L323 213.5Z" fill="#000000" stroke="#254835"></path><path d="M323 213.5L256 152.5L244 239.8Z" fill="#000000" stroke="#254835"></path><path d="M0 449.4L0 540.6L54 488.6Z" fill="#000000" stroke="#254835"></path><path d="M98 748.5L156 758.5L173 735.2Z" fill="#000000" stroke="#254835"></path><path d="M173 735.2L258 809.5L228 664.2Z" fill="#000000" stroke="#254835"></path><path d="M98 748.5L173 735.2L79 643.9Z" fill="#000000" stroke="#254835"></path><path d="M329 792.5L432 788.5L336 677.2Z" fill="#000000" stroke="#254835"></path><path d="M0 540.6L0 590.9L79 643.9Z" fill="#000000" stroke="#254835"></path><path d="M540 295.8L540 214.5L483 290.8Z" fill="#000000" stroke="#254835"></path><path d="M540 214.5L429 146.5L483 290.8Z" fill="#000000" stroke="#254835"></path><path d="M156 758.5L258 809.5L173 735.2Z" fill="#000000" stroke="#254835"></path><path d="M329 792.5L323 838.7L432 788.5Z" fill="#000000" stroke="#254835"></path><path d="M0 268.8L0 320.1L137 277.8Z" fill="#000000" stroke="#254835"></path><path d="M62 733.2L98 748.5L79 643.9Z" fill="#000000" stroke="#254835"></path><path d="M156 758.5L179 840.7L258 809.5Z" fill="#000000" stroke="#254835"></path><path d="M256 152.5L167 146.5L244 239.8Z" fill="#000000" stroke="#254835"></path><path d="M114 239.8L0 268.8L137 277.8Z" fill="#000000" stroke="#254835"></path><path d="M180 90.3L167 146.5L256 152.5Z" fill="#000000" stroke="#254835"></path><path d="M0 725.2L62 733.2L79 643.9Z" fill="#000000" stroke="#254835"></path><path d="M167 146.5L85 185.5L114 239.8Z" fill="#000000" stroke="#254835"></path><path d="M241 868.7L323 838.7L258 809.5Z" fill="#000000" stroke="#254835"></path><path d="M258 809.5L323 838.7L329 792.5Z" fill="#000000" stroke="#254835"></path><path d="M451 891.7L540 769.5L432 788.5Z" fill="#000000" stroke="#254835"></path><path d="M432 788.5L540 769.5L478 709.2Z" fill="#000000" stroke="#254835"></path><path d="M429 146.5L332 96.3L323 213.5Z" fill="#000000" stroke="#254835"></path><path d="M85 185.5L0 268.8L114 239.8Z" fill="#000000" stroke="#254835"></path><path d="M90 848.7L156 758.5L98 748.5Z" fill="#000000" stroke="#254835"></path><path d="M90 848.7L179 840.7L156 758.5Z" fill="#000000" stroke="#254835"></path><path d="M167 146.5L79 76.3L85 185.5Z" fill="#000000" stroke="#254835"></path><path d="M85 185.5L0 149.5L0 268.8Z" fill="#000000" stroke="#254835"></path><path d="M249 68.3L180 90.3L256 152.5Z" fill="#000000" stroke="#254835"></path><path d="M179 840.7L241 868.7L258 809.5Z" fill="#000000" stroke="#254835"></path><path d="M323 838.7L451 891.7L432 788.5Z" fill="#000000" stroke="#254835"></path><path d="M0 794.5L90 848.7L98 748.5Z" fill="#000000" stroke="#254835"></path><path d="M0 590.9L0 725.2L79 643.9Z" fill="#000000" stroke="#254835"></path><path d="M332 96.3L249 68.3L256 152.5Z" fill="#000000" stroke="#254835"></path><path d="M540 69.3L453 58.3L429 146.5Z" fill="#000000" stroke="#254835"></path><path d="M429 146.5L453 58.3L332 96.3Z" fill="#000000" stroke="#254835"></path><path d="M332 96.3L241 0L249 68.3Z" fill="#000000" stroke="#254835"></path><path d="M0 794.5L98 748.5L62 733.2Z" fill="#000000" stroke="#254835"></path><path d="M173 960L250 960L241 868.7Z" fill="#000000" stroke="#254835"></path><path d="M320 960L451 891.7L323 838.7Z" fill="#000000" stroke="#254835"></path><path d="M79 76.3L0 149.5L85 185.5Z" fill="#000000" stroke="#254835"></path><path d="M0 725.2L0 794.5L62 733.2Z" fill="#000000" stroke="#254835"></path><path d="M540 214.5L540 69.3L429 146.5Z" fill="#000000" stroke="#254835"></path><path d="M109 0L79 76.3L180 90.3Z" fill="#000000" stroke="#254835"></path><path d="M180 90.3L79 76.3L167 146.5Z" fill="#000000" stroke="#254835"></path><path d="M202 0L180 90.3L249 68.3Z" fill="#000000" stroke="#254835"></path><path d="M451 891.7L540 891.7L540 769.5Z" fill="#000000" stroke="#254835"></path><path d="M397 0L332 96.3L453 58.3Z" fill="#000000" stroke="#254835"></path><path d="M397 0L241 0L332 96.3Z" fill="#000000" stroke="#254835"></path><path d="M481 0L397 0L453 58.3Z" fill="#000000" stroke="#254835"></path><path d="M241 0L202 0L249 68.3Z" fill="#000000" stroke="#254835"></path><path d="M0 0L0 100.3L79 76.3Z" fill="#000000" stroke="#254835"></path><path d="M79 76.3L0 100.3L0 149.5Z" fill="#000000" stroke="#254835"></path><path d="M250 960L320 960L241 868.7Z" fill="#000000" stroke="#254835"></path><path d="M241 868.7L320 960L323 838.7Z" fill="#000000" stroke="#254835"></path><path d="M451 891.7L540 960L540 891.7Z" fill="#000000" stroke="#254835"></path><path d="M173 960L241 868.7L179 840.7Z" fill="#000000" stroke="#254835"></path><path d="M173 960L179 840.7L90 848.7Z" fill="#000000" stroke="#254835"></path><path d="M0 794.5L0 852.7L90 848.7Z" fill="#000000" stroke="#254835"></path><path d="M540 69.3L481 0L453 58.3Z" fill="#000000" stroke="#254835"></path><path d="M320 960L440 960L451 891.7Z" fill="#000000" stroke="#254835"></path><path d="M84 960L173 960L90 848.7Z" fill="#000000" stroke="#254835"></path><path d="M202 0L109 0L180 90.3Z" fill="#000000" stroke="#254835"></path><path d="M540 69.3L540 0L481 0Z" fill="#000000" stroke="#254835"></path><path d="M440 960L540 960L451 891.7Z" fill="#000000" stroke="#254835"></path><path d="M0 852.7L84 960L90 848.7Z" fill="#000000" stroke="#254835"></path><path d="M109 0L0 0L79 76.3Z" fill="#000000" stroke="#254835"></path><path d="M0 852.7L0 960L84 960Z" fill="#000000" stroke="#254835"></path></g></svg>