<svg id="visual" viewBox="0 0 540 960" width="540" height="960" xmlns="http://www.w3.org/2000/svg" xmlns:xlink="http://www.w3.org/1999/xlink" version="1.1"><g stroke-width="1" stroke-linejoin="bevel"><path d="M259 463L216 415L231 454Z" fill="#161416" stroke="#080505"></path><path d="M259 463L339 391L216 415Z" fill="#141114" stroke="#080505"></path><path d="M295 466L339 391L259 463Z" fill="#0f0810" stroke="#080505"></path><path d="M319 458L339 391L295 466Z" fill="#110b11" stroke="#080505"></path><path d="M211 320L187 355L216 415Z" fill="#151315" stroke="#080505"></path><path d="M216 415L174 493L231 454Z" fill="#110b11" stroke="#080505"></path><path d="M295 466L325 501L319 458Z" fill="#141114" stroke="#080505"></path><path d="M319 458L373 447L339 391Z" fill="#181818" stroke="#080505"></path><path d="M241 537L325 501L295 466Z" fill="#130f13" stroke="#080505"></path><path d="M241 537L295 466L259 463Z" fill="#0e060f" stroke="#080505"></path><path d="M122 454L174 493L216 415Z" fill="#161516" stroke="#080505"></path><path d="M231 454L241 537L259 463Z" fill="#130f13" stroke="#080505"></path><path d="M258 310L211 320L216 415Z" fill="#0e060f" stroke="#080505"></path><path d="M339 391L258 310L216 415Z" fill="#161416" stroke="#080505"></path><path d="M179 515L241 537L231 454Z" fill="#161516" stroke="#080505"></path><path d="M325 501L373 447L319 458Z" fill="#141114" stroke="#080505"></path><path d="M174 493L179 515L231 454Z" fill="#120d12" stroke="#080505"></path><path d="M373 447L393 417L339 391Z" fill="#0f0810" stroke="#080505"></path><path d="M339 391L323 293L258 310Z" fill="#181818" stroke="#080505"></path><path d="M130 355L122 454L216 415Z" fill="#171717" stroke="#080505"></path><path d="M174 493L91 480L179 515Z" fill="#181818" stroke="#080505"></path><path d="M284 587L350 528L325 501Z" fill="#161416" stroke="#080505"></path><path d="M325 501L389 486L373 447Z" fill="#161516" stroke="#080505"></path><path d="M373 447L389 486L393 417Z" fill="#151315" stroke="#080505"></path><path d="M150 318L130 355L187 355Z" fill="#141114" stroke="#080505"></path><path d="M187 355L130 355L216 415Z" fill="#120d12" stroke="#080505"></path><path d="M382 337L323 293L339 391Z" fill="#0e060f" stroke="#080505"></path><path d="M201 261L150 318L211 320Z" fill="#151315" stroke="#080505"></path><path d="M393 417L393 367L339 391Z" fill="#141114" stroke="#080505"></path><path d="M350 528L389 486L325 501Z" fill="#120d12" stroke="#080505"></path><path d="M211 320L150 318L187 355Z" fill="#130f13" stroke="#080505"></path><path d="M201 261L211 320L258 310Z" fill="#120d12" stroke="#080505"></path><path d="M393 367L382 337L339 391Z" fill="#161516" stroke="#080505"></path><path d="M412 406L393 367L393 417Z" fill="#141114" stroke="#080505"></path><path d="M412 406L401 366L393 367Z" fill="#130f13" stroke="#080505"></path><path d="M393 367L401 366L382 337Z" fill="#110b11" stroke="#080505"></path><path d="M469 440L412 406L393 417Z" fill="#141114" stroke="#080505"></path><path d="M130 355L99 450L122 454Z" fill="#151315" stroke="#080505"></path><path d="M122 454L91 480L174 493Z" fill="#0e060f" stroke="#080505"></path><path d="M174 580L220 578L179 515Z" fill="#161416" stroke="#080505"></path><path d="M179 515L220 578L241 537Z" fill="#120d12" stroke="#080505"></path><path d="M241 537L284 587L325 501Z" fill="#130f13" stroke="#080505"></path><path d="M220 578L284 587L241 537Z" fill="#151315" stroke="#080505"></path><path d="M279 245L201 261L258 310Z" fill="#151315" stroke="#080505"></path><path d="M99 450L91 480L122 454Z" fill="#0e060f" stroke="#080505"></path><path d="M338 209L279 245L323 293Z" fill="#130f13" stroke="#080505"></path><path d="M323 293L279 245L258 310Z" fill="#110b11" stroke="#080505"></path><path d="M145 565L174 580L179 515Z" fill="#171717" stroke="#080505"></path><path d="M208 655L300 641L284 587Z" fill="#110b11" stroke="#080505"></path><path d="M91 480L145 565L179 515Z" fill="#0e060f" stroke="#080505"></path><path d="M150 318L123 288L130 355Z" fill="#0f0810" stroke="#080505"></path><path d="M130 355L61 352L99 450Z" fill="#130f13" stroke="#080505"></path><path d="M99 450L24 411L91 480Z" fill="#141114" stroke="#080505"></path><path d="M158 252L123 288L150 318Z" fill="#161516" stroke="#080505"></path><path d="M350 528L417 529L389 486Z" fill="#181818" stroke="#080505"></path><path d="M389 486L469 440L393 417Z" fill="#110b11" stroke="#080505"></path><path d="M398 621L417 529L350 528Z" fill="#141114" stroke="#080505"></path><path d="M121 227L158 252L137 182Z" fill="#141114" stroke="#080505"></path><path d="M201 261L158 252L150 318Z" fill="#161516" stroke="#080505"></path><path d="M123 288L61 352L130 355Z" fill="#161416" stroke="#080505"></path><path d="M469 440L456 359L412 406Z" fill="#120d12" stroke="#080505"></path><path d="M412 406L456 359L401 366Z" fill="#161416" stroke="#080505"></path><path d="M401 366L456 359L382 337Z" fill="#120d12" stroke="#080505"></path><path d="M386 230L338 209L323 293Z" fill="#161516" stroke="#080505"></path><path d="M417 529L469 440L389 486Z" fill="#151315" stroke="#080505"></path><path d="M208 655L284 587L220 578Z" fill="#141114" stroke="#080505"></path><path d="M284 587L398 621L350 528Z" fill="#141114" stroke="#080505"></path><path d="M91 480L86 567L145 565Z" fill="#161516" stroke="#080505"></path><path d="M145 565L158 625L174 580Z" fill="#141114" stroke="#080505"></path><path d="M174 580L158 625L220 578Z" fill="#171717" stroke="#080505"></path><path d="M0 514L86 567L91 480Z" fill="#0e060f" stroke="#080505"></path><path d="M96 633L158 625L145 565Z" fill="#0e060f" stroke="#080505"></path><path d="M386 230L323 293L382 337Z" fill="#171717" stroke="#080505"></path><path d="M137 182L158 252L201 261Z" fill="#161416" stroke="#080505"></path><path d="M443 277L386 230L382 337Z" fill="#161416" stroke="#080505"></path><path d="M61 352L24 411L99 450Z" fill="#0e060f" stroke="#080505"></path><path d="M447 271L443 277L467 265Z" fill="#110b11" stroke="#080505"></path><path d="M456 359L443 277L382 337Z" fill="#161516" stroke="#080505"></path><path d="M137 182L201 261L200 142Z" fill="#130f13" stroke="#080505"></path><path d="M158 252L121 227L123 288Z" fill="#0e060f" stroke="#080505"></path><path d="M123 288L26 304L61 352Z" fill="#110b11" stroke="#080505"></path><path d="M0 389L0 426L24 411Z" fill="#0e060f" stroke="#080505"></path><path d="M386 230L361 203L338 209Z" fill="#130f13" stroke="#080505"></path><path d="M443 277L398 230L386 230Z" fill="#0e060f" stroke="#080505"></path><path d="M158 625L208 655L220 578Z" fill="#161516" stroke="#080505"></path><path d="M398 230L361 203L386 230Z" fill="#171717" stroke="#080505"></path><path d="M237 151L201 261L279 245Z" fill="#0e060f" stroke="#080505"></path><path d="M467 265L443 277L456 359Z" fill="#0f0810" stroke="#080505"></path><path d="M443 277L447 271L398 230Z" fill="#161516" stroke="#080505"></path><path d="M540 443L501 425L540 452Z" fill="#171717" stroke="#080505"></path><path d="M469 440L501 425L456 359Z" fill="#151315" stroke="#080505"></path><path d="M300 641L398 621L284 587Z" fill="#130f13" stroke="#080505"></path><path d="M417 529L492 554L469 440Z" fill="#110b11" stroke="#080505"></path><path d="M96 633L158 649L158 625Z" fill="#110b11" stroke="#080505"></path><path d="M158 625L158 649L208 655Z" fill="#0e060f" stroke="#080505"></path><path d="M0 389L24 411L61 352Z" fill="#120d12" stroke="#080505"></path><path d="M24 411L0 426L91 480Z" fill="#151315" stroke="#080505"></path><path d="M26 304L0 389L61 352Z" fill="#0f0810" stroke="#080505"></path><path d="M23 223L26 304L123 288Z" fill="#171717" stroke="#080505"></path><path d="M540 328L467 265L456 359Z" fill="#120d12" stroke="#080505"></path><path d="M447 271L467 265L398 230Z" fill="#0e060f" stroke="#080505"></path><path d="M398 230L393 146L361 203Z" fill="#120d12" stroke="#080505"></path><path d="M22 627L96 633L86 567Z" fill="#0f0810" stroke="#080505"></path><path d="M86 567L96 633L145 565Z" fill="#161416" stroke="#080505"></path><path d="M237 151L279 245L338 209Z" fill="#161416" stroke="#080505"></path><path d="M0 262L0 264L26 304Z" fill="#120d12" stroke="#080505"></path><path d="M349 696L398 621L300 641Z" fill="#110b11" stroke="#080505"></path><path d="M449 637L437 622L435 668Z" fill="#151315" stroke="#080505"></path><path d="M398 621L437 622L417 529Z" fill="#0f0810" stroke="#080505"></path><path d="M437 622L492 554L417 529Z" fill="#171717" stroke="#080505"></path><path d="M313 92L237 151L338 209Z" fill="#130f13" stroke="#080505"></path><path d="M0 426L0 514L91 480Z" fill="#0e060f" stroke="#080505"></path><path d="M158 649L200 697L208 655Z" fill="#151315" stroke="#080505"></path><path d="M208 655L316 703L300 641Z" fill="#110b11" stroke="#080505"></path><path d="M131 739L200 697L158 649Z" fill="#181818" stroke="#080505"></path><path d="M540 452L501 425L469 440Z" fill="#181818" stroke="#080505"></path><path d="M501 425L540 392L456 359Z" fill="#0f0810" stroke="#080505"></path><path d="M540 443L540 392L501 425Z" fill="#130f13" stroke="#080505"></path><path d="M540 529L540 452L469 440Z" fill="#161516" stroke="#080505"></path><path d="M237 151L200 142L201 261Z" fill="#0e060f" stroke="#080505"></path><path d="M200 697L316 703L208 655Z" fill="#110b11" stroke="#080505"></path><path d="M210 73L196 140L200 142Z" fill="#161416" stroke="#080505"></path><path d="M200 142L196 140L137 182Z" fill="#151315" stroke="#080505"></path><path d="M437 622L498 620L492 554Z" fill="#171717" stroke="#080505"></path><path d="M435 668L437 622L398 621Z" fill="#130f13" stroke="#080505"></path><path d="M0 514L0 554L86 567Z" fill="#0e060f" stroke="#080505"></path><path d="M316 703L349 696L300 641Z" fill="#120d12" stroke="#080505"></path><path d="M540 392L540 328L456 359Z" fill="#181818" stroke="#080505"></path><path d="M0 262L26 304L23 223Z" fill="#151315" stroke="#080505"></path><path d="M26 304L0 264L0 389Z" fill="#120d12" stroke="#080505"></path><path d="M123 288L121 227L23 223Z" fill="#161516" stroke="#080505"></path><path d="M23 223L121 227L94 156Z" fill="#110b11" stroke="#080505"></path><path d="M492 554L540 529L469 440Z" fill="#0f0810" stroke="#080505"></path><path d="M540 602L540 529L492 554Z" fill="#161516" stroke="#080505"></path><path d="M385 700L435 668L398 621Z" fill="#181818" stroke="#080505"></path><path d="M449 637L498 620L437 622Z" fill="#110b11" stroke="#080505"></path><path d="M336 737L385 700L349 696Z" fill="#0e060f" stroke="#080505"></path><path d="M349 696L385 700L398 621Z" fill="#141114" stroke="#080505"></path><path d="M94 156L121 227L137 182Z" fill="#171717" stroke="#080505"></path><path d="M196 140L146 135L137 182Z" fill="#141114" stroke="#080505"></path><path d="M398 143L393 146L438 164Z" fill="#0e060f" stroke="#080505"></path><path d="M361 203L393 146L338 209Z" fill="#120d12" stroke="#080505"></path><path d="M237 151L210 73L200 142Z" fill="#130f13" stroke="#080505"></path><path d="M196 140L155 98L146 135Z" fill="#0f0810" stroke="#080505"></path><path d="M393 146L398 230L438 164Z" fill="#120d12" stroke="#080505"></path><path d="M146 135L112 149L137 182Z" fill="#141114" stroke="#080505"></path><path d="M54 58L94 156L112 149Z" fill="#171717" stroke="#080505"></path><path d="M112 149L94 156L137 182Z" fill="#130f13" stroke="#080505"></path><path d="M0 554L22 627L86 567Z" fill="#151315" stroke="#080505"></path><path d="M149 746L216 749L200 697Z" fill="#141114" stroke="#080505"></path><path d="M540 679L498 620L449 637Z" fill="#161416" stroke="#080505"></path><path d="M438 164L398 230L467 265Z" fill="#141114" stroke="#080505"></path><path d="M393 146L313 92L338 209Z" fill="#0e060f" stroke="#080505"></path><path d="M540 176L438 164L467 265Z" fill="#130f13" stroke="#080505"></path><path d="M385 700L454 752L435 668Z" fill="#161516" stroke="#080505"></path><path d="M316 703L336 737L349 696Z" fill="#141114" stroke="#080505"></path><path d="M280 759L336 737L316 703Z" fill="#161416" stroke="#080505"></path><path d="M0 554L0 628L22 627Z" fill="#0f0810" stroke="#080505"></path><path d="M131 739L158 649L96 633Z" fill="#161516" stroke="#080505"></path><path d="M131 739L96 633L32 682Z" fill="#171717" stroke="#080505"></path><path d="M200 697L280 759L316 703Z" fill="#110b11" stroke="#080505"></path><path d="M0 628L0 634L22 627Z" fill="#141114" stroke="#080505"></path><path d="M332 34L313 92L398 143Z" fill="#161516" stroke="#080505"></path><path d="M398 143L313 92L393 146Z" fill="#0e060f" stroke="#080505"></path><path d="M540 328L540 242L467 265Z" fill="#181818" stroke="#080505"></path><path d="M540 679L540 602L498 620Z" fill="#120d12" stroke="#080505"></path><path d="M498 620L540 602L492 554Z" fill="#130f13" stroke="#080505"></path><path d="M540 679L449 637L435 668Z" fill="#181818" stroke="#080505"></path><path d="M216 749L280 759L200 697Z" fill="#141114" stroke="#080505"></path><path d="M210 73L155 98L196 140Z" fill="#171717" stroke="#080505"></path><path d="M146 135L155 98L112 149Z" fill="#171717" stroke="#080505"></path><path d="M35 157L0 196L23 223Z" fill="#130f13" stroke="#080505"></path><path d="M32 682L96 633L22 627Z" fill="#181818" stroke="#080505"></path><path d="M216 749L240 793L280 759Z" fill="#141114" stroke="#080505"></path><path d="M131 739L149 746L200 697Z" fill="#171717" stroke="#080505"></path><path d="M35 157L23 223L94 156Z" fill="#141114" stroke="#080505"></path><path d="M23 223L0 196L0 262Z" fill="#171717" stroke="#080505"></path><path d="M438 164L454 140L398 143Z" fill="#110b11" stroke="#080505"></path><path d="M540 176L454 140L438 164Z" fill="#110b11" stroke="#080505"></path><path d="M0 634L32 682L22 627Z" fill="#171717" stroke="#080505"></path><path d="M54 58L35 157L94 156Z" fill="#171717" stroke="#080505"></path><path d="M266 59L210 73L237 151Z" fill="#110b11" stroke="#080505"></path><path d="M83 783L155 763L131 739Z" fill="#181818" stroke="#080505"></path><path d="M131 739L155 763L149 746Z" fill="#171717" stroke="#080505"></path><path d="M149 746L155 763L216 749Z" fill="#120d12" stroke="#080505"></path><path d="M313 92L266 59L237 151Z" fill="#110b11" stroke="#080505"></path><path d="M277 39L266 59L313 92Z" fill="#110b11" stroke="#080505"></path><path d="M322 813L386 761L336 737Z" fill="#171717" stroke="#080505"></path><path d="M336 737L386 761L385 700Z" fill="#0f0810" stroke="#080505"></path><path d="M322 813L336 737L280 759Z" fill="#151315" stroke="#080505"></path><path d="M0 74L0 157L35 157Z" fill="#141114" stroke="#080505"></path><path d="M35 157L0 157L0 196Z" fill="#0e060f" stroke="#080505"></path><path d="M54 58L112 149L155 98Z" fill="#171717" stroke="#080505"></path><path d="M0 634L0 689L32 682Z" fill="#120d12" stroke="#080505"></path><path d="M32 682L46 762L131 739Z" fill="#110b11" stroke="#080505"></path><path d="M204 834L240 793L216 749Z" fill="#120d12" stroke="#080505"></path><path d="M540 242L540 176L467 265Z" fill="#161516" stroke="#080505"></path><path d="M332 34L277 39L313 92Z" fill="#151315" stroke="#080505"></path><path d="M540 683L540 679L435 668Z" fill="#110b11" stroke="#080505"></path><path d="M266 59L245 0L210 73Z" fill="#161516" stroke="#080505"></path><path d="M153 0L54 58L155 98Z" fill="#161516" stroke="#080505"></path><path d="M332 34L398 143L448 50Z" fill="#181818" stroke="#080505"></path><path d="M485 786L454 752L440 865Z" fill="#120d12" stroke="#080505"></path><path d="M386 761L454 752L385 700Z" fill="#181818" stroke="#080505"></path><path d="M490 742L540 683L435 668Z" fill="#151315" stroke="#080505"></path><path d="M245 884L288 810L240 793Z" fill="#141114" stroke="#080505"></path><path d="M240 793L288 810L280 759Z" fill="#171717" stroke="#080505"></path><path d="M472 83L398 143L454 140Z" fill="#161416" stroke="#080505"></path><path d="M485 786L490 742L454 752Z" fill="#181818" stroke="#080505"></path><path d="M454 752L490 742L435 668Z" fill="#151315" stroke="#080505"></path><path d="M288 810L322 813L280 759Z" fill="#0e060f" stroke="#080505"></path><path d="M0 689L46 762L32 682Z" fill="#181818" stroke="#080505"></path><path d="M155 763L204 834L216 749Z" fill="#130f13" stroke="#080505"></path><path d="M46 762L83 783L131 739Z" fill="#151315" stroke="#080505"></path><path d="M540 101L472 83L454 140Z" fill="#120d12" stroke="#080505"></path><path d="M191 854L204 834L136 855Z" fill="#0f0810" stroke="#080505"></path><path d="M288 810L314 884L322 813Z" fill="#0e060f" stroke="#080505"></path><path d="M245 0L266 59L277 39Z" fill="#171717" stroke="#080505"></path><path d="M153 0L155 98L210 73Z" fill="#171717" stroke="#080505"></path><path d="M472 83L448 50L398 143Z" fill="#141114" stroke="#080505"></path><path d="M490 56L448 50L472 83Z" fill="#141114" stroke="#080505"></path><path d="M333 0L277 39L332 34Z" fill="#161516" stroke="#080505"></path><path d="M333 0L245 0L277 39Z" fill="#130f13" stroke="#080505"></path><path d="M245 0L187 0L210 73Z" fill="#161416" stroke="#080505"></path><path d="M540 176L540 101L454 140Z" fill="#0e060f" stroke="#080505"></path><path d="M335 0L333 0L332 34Z" fill="#171717" stroke="#080505"></path><path d="M393 0L335 0L332 34Z" fill="#0e060f" stroke="#080505"></path><path d="M440 865L454 752L386 761Z" fill="#110b11" stroke="#080505"></path><path d="M490 742L540 781L540 683Z" fill="#0f0810" stroke="#080505"></path><path d="M440 865L386 761L322 813Z" fill="#0f0810" stroke="#080505"></path><path d="M0 0L0 74L54 58Z" fill="#161516" stroke="#080505"></path><path d="M54 58L0 74L35 157Z" fill="#161416" stroke="#080505"></path><path d="M540 80L490 56L472 83Z" fill="#161516" stroke="#080505"></path><path d="M448 50L393 0L332 34Z" fill="#161416" stroke="#080505"></path><path d="M187 0L153 0L210 73Z" fill="#161416" stroke="#080505"></path><path d="M136 855L204 834L155 763Z" fill="#130f13" stroke="#080505"></path><path d="M204 834L245 884L240 793Z" fill="#141114" stroke="#080505"></path><path d="M136 855L155 763L83 783Z" fill="#161416" stroke="#080505"></path><path d="M463 0L393 0L448 50Z" fill="#181818" stroke="#080505"></path><path d="M540 101L540 80L472 83Z" fill="#120d12" stroke="#080505"></path><path d="M490 56L463 0L448 50Z" fill="#141114" stroke="#080505"></path><path d="M0 689L23 804L46 762Z" fill="#0f0810" stroke="#080505"></path><path d="M46 762L23 804L83 783Z" fill="#141114" stroke="#080505"></path><path d="M113 860L136 855L83 783Z" fill="#181818" stroke="#080505"></path><path d="M485 786L540 781L490 742Z" fill="#151315" stroke="#080505"></path><path d="M540 868L540 781L485 786Z" fill="#110b11" stroke="#080505"></path><path d="M23 804L113 860L83 783Z" fill="#141114" stroke="#080505"></path><path d="M190 898L245 884L191 854Z" fill="#161516" stroke="#080505"></path><path d="M190 898L191 854L136 855Z" fill="#151315" stroke="#080505"></path><path d="M191 854L245 884L204 834Z" fill="#151315" stroke="#080505"></path><path d="M153 0L64 0L54 58Z" fill="#120d12" stroke="#080505"></path><path d="M245 884L314 884L288 810Z" fill="#181818" stroke="#080505"></path><path d="M540 0L463 0L490 56Z" fill="#110b11" stroke="#080505"></path><path d="M23 804L0 871L113 860Z" fill="#161416" stroke="#080505"></path><path d="M0 689L0 817L23 804Z" fill="#110b11" stroke="#080505"></path><path d="M0 817L0 819L23 804Z" fill="#120d12" stroke="#080505"></path><path d="M314 884L440 865L322 813Z" fill="#130f13" stroke="#080505"></path><path d="M332 960L344 917L314 884Z" fill="#0e060f" stroke="#080505"></path><path d="M157 960L190 898L146 960Z" fill="#151315" stroke="#080505"></path><path d="M234 960L190 898L157 960Z" fill="#0e060f" stroke="#080505"></path><path d="M468 935L459 867L440 865Z" fill="#0e060f" stroke="#080505"></path><path d="M440 865L459 867L485 786Z" fill="#110b11" stroke="#080505"></path><path d="M64 0L0 0L54 58Z" fill="#110b11" stroke="#080505"></path><path d="M314 884L344 917L440 865Z" fill="#110b11" stroke="#080505"></path><path d="M265 960L314 884L245 884Z" fill="#0f0810" stroke="#080505"></path><path d="M540 80L540 0L490 56Z" fill="#110b11" stroke="#080505"></path><path d="M0 819L0 871L23 804Z" fill="#161516" stroke="#080505"></path><path d="M332 960L381 934L344 917Z" fill="#181818" stroke="#080505"></path><path d="M344 917L381 934L440 865Z" fill="#181818" stroke="#080505"></path><path d="M265 960L245 884L234 960Z" fill="#161516" stroke="#080505"></path><path d="M540 885L540 868L459 867Z" fill="#181818" stroke="#080505"></path><path d="M459 867L540 868L485 786Z" fill="#181818" stroke="#080505"></path><path d="M234 960L245 884L190 898Z" fill="#130f13" stroke="#080505"></path><path d="M190 898L136 855L146 960Z" fill="#161516" stroke="#080505"></path><path d="M468 935L540 885L459 867Z" fill="#161416" stroke="#080505"></path><path d="M265 960L332 960L314 884Z" fill="#120d12" stroke="#080505"></path><path d="M381 934L468 935L440 865Z" fill="#130f13" stroke="#080505"></path><path d="M0 871L72 937L113 860Z" fill="#0e060f" stroke="#080505"></path><path d="M146 960L136 855L113 860Z" fill="#0f0810" stroke="#080505"></path><path d="M72 937L146 960L113 860Z" fill="#171717" stroke="#080505"></path><path d="M446 960L468 935L381 934Z" fill="#0e060f" stroke="#080505"></path><path d="M0 960L91 960L72 937Z" fill="#0e060f" stroke="#080505"></path><path d="M72 937L91 960L146 960Z" fill="#130f13" stroke="#080505"></path><path d="M332 960L446 960L381 934Z" fill="#141114" stroke="#080505"></path><path d="M468 935L507 960L540 885Z" fill="#0f0810" stroke="#080505"></path><path d="M446 960L507 960L468 935Z" fill="#120d12" stroke="#080505"></path><path d="M0 871L0 960L72 937Z" fill="#161416" stroke="#080505"></path><path d="M507 960L540 960L540 885Z" fill="#120d12" stroke="#080505"></path></g></svg>