<svg id="visual" viewBox="0 0 900 600" width="900" height="600" xmlns="http://www.w3.org/2000/svg" xmlns:xlink="http://www.w3.org/1999/xlink" version="1.1"><g stroke-width="1" stroke-linejoin="bevel"><path d="M464 214L446 398L660 402Z" fill="#0c620a" stroke="#0b0707"></path><path d="M660 402L684 200L464 214Z" fill="#1f4509" stroke="#0b0707"></path><path d="M446 398L447 600L660 402Z" fill="#0c620a" stroke="#0b0707"></path><path d="M447 600L675 600L660 402Z" fill="#1f3e09" stroke="#0b0707"></path><path d="M660 402L900 411L684 200Z" fill="#1c2a08" stroke="#0b0707"></path><path d="M678 0L452 0L464 214Z" fill="#0c620a" stroke="#0b0707"></path><path d="M215 212L219 392L446 398Z" fill="#1d4c08" stroke="#0b0707"></path><path d="M684 200L678 0L464 214Z" fill="#1d4c08" stroke="#0b0707"></path><path d="M446 398L219 392L447 600Z" fill="#0c620a" stroke="#0b0707"></path><path d="M215 212L446 398L464 214Z" fill="#1f3e09" stroke="#0b0707"></path><path d="M452 0L215 212L464 214Z" fill="#1c2a08" stroke="#0b0707"></path><path d="M675 600L900 411L660 402Z" fill="#181e07" stroke="#0b0707"></path><path d="M684 200L900 0L678 0Z" fill="#1f3709" stroke="#0b0707"></path><path d="M900 411L900 211L684 200Z" fill="#1c2a08" stroke="#0b0707"></path><path d="M0 387L212 600L219 392Z" fill="#181e07" stroke="#0b0707"></path><path d="M219 392L212 600L447 600Z" fill="#1f3709" stroke="#0b0707"></path><path d="M675 600L900 600L900 411Z" fill="#1a5308" stroke="#0b0707"></path><path d="M452 0L218 0L215 212Z" fill="#1d4c08" stroke="#0b0707"></path><path d="M900 211L900 0L684 200Z" fill="#1f3709" stroke="#0b0707"></path><path d="M215 212L0 387L219 392Z" fill="#1f4509" stroke="#0b0707"></path><path d="M0 213L0 387L215 212Z" fill="#1a2408" stroke="#0b0707"></path><path d="M0 0L0 213L215 212Z" fill="#1f3709" stroke="#0b0707"></path><path d="M0 387L0 600L212 600Z" fill="#155b09" stroke="#0b0707"></path><path d="M218 0L0 0L215 212Z" fill="#1c2a08" stroke="#0b0707"></path></g></svg>