<svg id="visual" viewBox="0 0 900 600" width="900" height="600" xmlns="http://www.w3.org/2000/svg" xmlns:xlink="http://www.w3.org/1999/xlink" version="1.1"><rect x="0" y="0" width="900" height="600" fill="#001220"></rect><defs><linearGradient id="grad1_0" x1="33.3%" y1="0%" x2="100%" y2="100%"><stop offset="20%" stop-color="#fbae3c" stop-opacity="1"></stop><stop offset="80%" stop-color="#fbae3c" stop-opacity="1"></stop></linearGradient></defs><defs><linearGradient id="grad1_1" x1="33.3%" y1="0%" x2="100%" y2="100%"><stop offset="20%" stop-color="#fbae3c" stop-opacity="1"></stop><stop offset="80%" stop-color="#96446e" stop-opacity="1"></stop></linearGradient></defs><defs><linearGradient id="grad1_2" x1="33.3%" y1="0%" x2="100%" y2="100%"><stop offset="20%" stop-color="#001220" stop-opacity="1"></stop><stop offset="80%" stop-color="#96446e" stop-opacity="1"></stop></linearGradient></defs><defs><linearGradient id="grad2_0" x1="0%" y1="0%" x2="66.7%" y2="100%"><stop offset="20%" stop-color="#fbae3c" stop-opacity="1"></stop><stop offset="80%" stop-color="#fbae3c" stop-opacity="1"></stop></linearGradient></defs><defs><linearGradient id="grad2_1" x1="0%" y1="0%" x2="66.7%" y2="100%"><stop offset="20%" stop-color="#96446e" stop-opacity="1"></stop><stop offset="80%" stop-color="#fbae3c" stop-opacity="1"></stop></linearGradient></defs><defs><linearGradient id="grad2_2" x1="0%" y1="0%" x2="66.7%" y2="100%"><stop offset="20%" stop-color="#96446e" stop-opacity="1"></stop><stop offset="80%" stop-color="#001220" stop-opacity="1"></stop></linearGradient></defs><g transform="translate(900, 0)"><path d="M0 378.6C-70.9 371.4 -141.8 364.2 -189.3 327.9C-236.7 291.5 -260.7 226 -288.4 166.5C-316 107 -347.3 53.5 -378.6 0L0 0Z" fill="#3d3056"></path><path d="M0 252.4C-47.3 247.6 -94.6 242.8 -126.2 218.6C-157.8 194.3 -173.8 150.7 -192.3 111C-210.7 71.3 -231.5 35.7 -252.4 0L0 0Z" fill="#e1685e"></path><path d="M0 126.2C-23.6 123.8 -47.3 121.4 -63.1 109.3C-78.9 97.2 -86.9 75.3 -96.1 55.5C-105.3 35.7 -115.8 17.8 -126.2 0L0 0Z" fill="#fbae3c"></path></g><g transform="translate(0, 600)"><path d="M0 -378.6C71.4 -371.7 142.8 -364.7 189.3 -327.9C235.8 -291 257.5 -224.1 284.9 -164.5C312.3 -104.9 345.5 -52.4 378.6 0L0 0Z" fill="#3d3056"></path><path d="M0 -252.4C47.6 -247.8 95.2 -243.2 126.2 -218.6C157.2 -194 171.7 -149.4 189.9 -109.7C208.2 -69.9 230.3 -35 252.4 0L0 0Z" fill="#e1685e"></path><path d="M0 -126.2C23.8 -123.9 47.6 -121.6 63.1 -109.3C78.6 -97 85.8 -74.7 95 -54.8C104.1 -35 115.2 -17.5 126.2 0L0 0Z" fill="#fbae3c"></path></g></svg>