<svg id="visual" viewBox="0 0 900 600" width="900" height="600" xmlns="http://www.w3.org/2000/svg" xmlns:xlink="http://www.w3.org/1999/xlink" version="1.1"><rect x="0" y="0" width="900" height="600" fill="#000000"></rect><path d="M51 0L52.8 11.2C54.7 22.3 58.3 44.7 63.8 66.8C69.3 89 76.7 111 87 133.2C97.3 155.3 110.7 177.7 101.3 200C92 222.3 60 244.7 57 266.8C54 289 80 311 91.8 333.2C103.7 355.3 101.3 377.7 98.5 400C95.7 422.3 92.3 444.7 79.2 466.8C66 489 43 511 35.5 533.2C28 555.3 36 577.7 40 588.8L44 600" fill="none" stroke-linecap="round" stroke-linejoin="miter" stroke="#029219" stroke-width="40"></path></svg>