<svg id="visual" viewBox="0 0 900 600" width="900" height="600" xmlns="http://www.w3.org/2000/svg" xmlns:xlink="http://www.w3.org/1999/xlink" version="1.1"><rect x="0" y="0" width="900" height="600" fill="#000000"></rect><path d="M138 0L138.2 11.2C138.3 22.3 138.7 44.7 124.2 66.8C109.7 89 80.3 111 57.7 133.2C35 155.3 19 177.7 37.7 200C56.3 222.3 109.7 244.7 128.2 266.8C146.7 289 130.3 311 104.3 333.2C78.3 355.3 42.7 377.7 42.5 400C42.3 422.3 77.7 444.7 88.8 466.8C100 489 87 511 87.2 533.2C87.3 555.3 100.7 577.7 107.3 588.8L114 600" fill="none" stroke-linecap="round" stroke-linejoin="miter" stroke="#029219" stroke-width="40"></path></svg>