<svg id="visual" viewBox="0 0 700 1600" width="700" height="1600" xmlns="http://www.w3.org/2000/svg" xmlns:xlink="http://www.w3.org/1999/xlink" version="1.1"><path d="M90 0L81.8 9.2C73.7 18.3 57.3 36.7 62.2 55C67 73.3 93 91.7 91.8 110.2C90.7 128.7 62.3 147.3 44.3 165.8C26.3 184.3 18.7 202.7 34.7 221C50.7 239.3 90.3 257.7 95.2 276C100 294.3 70 312.7 51.5 331C33 349.3 26 367.7 25 386C24 404.3 29 422.7 49 441.2C69 459.7 104 478.3 107.8 496.8C111.7 515.3 84.3 533.7 74.2 552C64 570.3 71 588.7 82.8 607C94.7 625.3 111.3 643.7 113.8 662C116.3 680.3 104.7 698.7 94.2 717C83.7 735.3 74.3 753.7 67.7 772.2C61 790.7 57 809.3 57 827.8C57 846.3 61 864.7 62.3 883C63.7 901.3 62.3 919.7 56.5 938C50.7 956.3 40.3 974.7 37.7 993C35 1011.3 40 1029.7 42.2 1048C44.3 1066.3 43.7 1084.7 36.2 1103.2C28.7 1121.7 14.3 1140.3 28.3 1158.8C42.3 1177.3 84.7 1195.7 91.7 1214C98.7 1232.3 70.3 1250.7 59.5 1269C48.7 1287.3 55.3 1305.7 68.2 1324C81 1342.3 100 1360.7 107.2 1379C114.3 1397.3 109.7 1415.7 93.7 1434.2C77.7 1452.7 50.3 1471.3 45 1489.8C39.7 1508.3 56.3 1526.7 74.7 1545C93 1563.3 113 1581.7 123 1590.8L133 1600" fill="none" stroke-linecap="round" stroke-linejoin="miter" stroke="#025219" stroke-width="40"></path></svg>