<svg id="visual" viewBox="0 0 700 1600" width="700" height="1600" xmlns="http://www.w3.org/2000/svg" xmlns:xlink="http://www.w3.org/1999/xlink" version="1.1"><path d="M135 0L122.7 9.2C110.3 18.3 85.7 36.7 92.8 55C100 73.3 139 91.7 137.2 110.2C135.3 128.7 92.7 147.3 65.7 165.8C38.7 184.3 27.3 202.7 51.5 221C75.7 239.3 135.3 257.7 142.5 276C149.7 294.3 104.3 312.7 76.3 331C48.3 349.3 37.7 367.7 36.3 386C35 404.3 43 422.7 73.2 441.2C103.3 459.7 155.7 478.3 161.3 496.8C167 515.3 126 533.7 110.7 552C95.3 570.3 105.7 588.7 123.3 607C141 625.3 166 643.7 170 662C174 680.3 157 698.7 141.5 717C126 735.3 112 753.7 102 772.2C92 790.7 86 809.3 86 827.8C86 846.3 92 864.7 93.8 883C95.7 901.3 93.3 919.7 84.5 938C75.7 956.3 60.3 974.7 56.5 993C52.7 1011.3 60.3 1029.7 63.5 1048C66.7 1066.3 65.3 1084.7 54 1103.2C42.7 1121.7 21.3 1140.3 42.3 1158.8C63.3 1177.3 126.7 1195.7 137.2 1214C147.7 1232.3 105.3 1250.7 89.2 1269C73 1287.3 83 1305.7 102.2 1324C121.3 1342.3 149.7 1360.7 160.3 1379C171 1397.3 164 1415.7 140 1434.2C116 1452.7 75 1471.3 67 1489.8C59 1508.3 84 1526.7 111.5 1545C139 1563.3 169 1581.7 184 1590.8L199 1600" fill="none" stroke-linecap="round" stroke-linejoin="miter" stroke="#029219" stroke-width="40"></path></svg>